<svg width="641" height="502" viewBox="0 0 641 502" fill="none" xmlns="http://www.w3.org/2000/svg">
<path d="M287.165 340.599C286.347 340.345 285.344 336.573 286.449 324.103C290.661 274.631 209.128 218.737 143.595 173.774C138.441 170.223 133.559 166.285 128.995 161.997C91.9458 128.217 60.5264 69.58 66.0166 58.6129C66.3881 57.9249 67.3829 56.9845 70.8761 58.1756C75.8358 59.5621 83.0632 61.2679 91.9122 63.3517L95.8899 64.2379C132.943 71.723 169.562 81.546 205.52 93.6467L210.45 95.2974L212.022 95.8104L212.913 96.1233C295.567 124.687 308.233 201.833 307.831 248.278C308.012 249.702 307.811 251.225 307.732 252.673C307.441 279.902 302.247 306.683 292.398 331.749C289.929 337.601 287.844 340.8 286.945 340.422L287.165 340.599Z" fill="white" fill-opacity="0.03"/>
<path d="M114.184 198.155L119.674 211.472C151.928 289.081 187.509 361.941 232.937 367.737C245.325 369.306 249.136 370.926 249.121 371.844C249.036 374.274 235.013 377.368 213.904 377.827C194.324 378.228 174.679 376.506 155.32 372.692C110.527 363.631 33.756 335.978 22.7345 249.062C20.8142 233.918 18.918 218.968 18.3026 204.295C16.017 173.867 15.907 151.295 15.9845 134.334C15.7401 123.622 15.5446 113.297 15.1157 103.713C14.5987 99.6358 16.1946 99.2963 16.8344 99.1733C30.7778 95.9549 94.6631 150.164 114.248 198.149L114.184 198.155Z" fill="white" fill-opacity="0.03"/>
<path d="M396.296 410.405C396.301 409.726 399.011 408.271 409.013 406.881C448.653 401.232 473.056 328.12 492.7 269.349C494.257 264.724 496.18 260.24 498.452 255.939C516.088 221.207 554.471 186.354 564.335 188.626C564.96 188.789 565.929 189.389 565.824 192.305C565.913 196.39 566.287 202.285 566.75 209.503L566.997 212.739C569.902 242.739 570.878 272.825 569.919 302.81L569.794 306.919L569.765 308.227L569.731 308.972C566.941 378.03 509.67 401.714 473.295 409.764C472.225 410.16 470.987 410.28 469.838 410.479C448.499 415.156 426.352 415.961 404.445 412.858C399.291 412.002 396.3 410.966 396.382 410.202L396.296 410.405Z" fill="white" fill-opacity="0.03"/>
<path d="M466.707 250.993L457.601 257.636C404.595 296.549 356.085 337.181 362.288 373.354C363.988 383.216 363.622 386.454 362.902 386.608C360.984 386.98 355.255 376.693 349.91 360.453C344.972 345.384 341.677 329.882 340.084 314.225C336.581 277.956 340.049 213.611 405.34 189.441C416.717 185.229 427.947 181.072 439.263 177.954C462.492 170.709 480.099 166.56 493.366 163.566C501.676 161.449 509.696 159.439 517.081 157.382C520.143 156.248 520.786 157.421 521.033 157.893C526.84 168.096 499.584 227.258 466.727 251.041L466.707 250.993Z" fill="white" fill-opacity="0.03"/>
</svg>
