<svg width="347" height="243" viewBox="0 0 347 243" fill="none" xmlns="http://www.w3.org/2000/svg">
<path d="M199.723 176.546C200.181 176.356 200.487 174.103 198.922 166.888C192.814 138.258 236.18 101.383 271.033 71.7217C273.774 69.38 276.327 66.8273 278.668 64.0869C297.755 42.4425 311.727 6.59729 307.718 0.489507C307.451 0.107771 306.802 -0.388487 304.855 0.489507C302.069 1.55837 297.984 2.93245 292.984 4.61209L290.732 5.33764C269.701 11.6473 249.095 19.2977 229.042 28.2418L226.292 29.4632L225.415 29.8448L224.919 30.0741C178.881 51.0696 177.201 96.725 180.866 123.79C180.866 124.63 181.095 125.508 181.248 126.348C183.429 142.213 188.433 157.559 196.022 171.66C197.892 174.943 199.343 176.699 199.839 176.432L199.723 176.546Z" fill="white" fill-opacity="0.1"/>
<path d="M289.967 84.3958L287.753 92.4503C274.698 139.404 259.352 183.762 233.318 189.526C226.217 191.091 224.117 192.236 224.193 192.771C224.422 194.183 232.82 195.252 245.15 194.412C256.585 193.618 267.902 191.583 278.897 188.343C304.321 180.708 347 160.552 347 109.285C347 100.352 347 91.5342 346.274 82.9451C345.358 65.0799 343.755 51.9101 342.457 42.0231C341.808 35.7626 341.159 29.7309 340.701 24.1194C340.701 21.7145 339.746 21.6002 339.365 21.5621C331.005 20.4169 297.794 55.3838 289.93 84.3958H289.967Z" fill="white" fill-opacity="0.1"/>
<path d="M141.308 222.983C141.255 222.588 139.57 221.881 133.64 221.596C110.132 220.381 90.5156 179.024 74.7313 145.78C73.4829 143.164 72.0314 140.65 70.3903 138.261C57.5513 118.932 32.6178 100.62 27.0397 102.462C26.6876 102.59 26.1671 102.991 26.4438 104.686C26.6941 107.073 26.9113 110.531 27.1752 114.765L27.2701 116.665C27.7939 134.313 29.4476 151.91 32.2211 169.346L32.5975 171.736L32.7112 172.497L32.7861 172.93C39.5121 213.058 74.6233 223.864 96.4076 226.651C97.0599 226.825 97.7897 226.83 98.4738 226.886C111.25 228.494 124.211 227.801 136.743 224.841C139.682 224.072 141.348 223.311 141.243 222.869L141.308 222.983Z" fill="white" fill-opacity="0.1"/>
<path d="M88.5166 133.711L94.3118 137.107C128.064 157.02 159.323 178.17 158.382 199.591C158.12 205.432 158.572 207.301 159.003 207.353C160.148 207.469 162.726 201.169 164.64 191.417C166.403 182.37 167.177 173.157 166.949 163.943C166.31 142.607 159.537 105.264 119.718 94.594C112.78 92.7349 105.93 90.8995 99.1084 89.6754C85.0417 86.6689 74.4789 85.1733 66.5295 84.1238C61.5319 83.3249 56.7121 82.5736 52.2582 81.7615C50.3903 81.261 50.1029 81.9788 49.9938 82.2673C47.3644 88.5224 67.6117 121.594 88.5089 133.74L88.5166 133.711Z" fill="white" fill-opacity="0.1"/>
</svg>
