<svg width="19" height="18" viewBox="0 0 19 18" fill="none" xmlns="http://www.w3.org/2000/svg">
<path d="M4.00056 -6.88394e-05L17.0006 -6.94077e-05C17.2658 -6.94193e-05 17.5201 0.105287 17.7077 0.292823C17.8952 0.480359 18.0006 0.734714 18.0006 0.999931L18.0006 13.9999C18.0006 14.2651 17.8952 14.5195 17.7077 14.707C17.5201 14.8946 17.2658 14.9999 17.0006 14.9999C16.7353 14.9999 16.481 14.8946 16.2934 14.707C16.1059 14.5195 16.0006 14.2651 16.0006 13.9999L16.0006 3.41368L1.70806 17.7074C1.52042 17.8951 1.26592 18.0005 1.00056 18.0005C0.735192 18.0005 0.480697 17.8951 0.293056 17.7074C0.105415 17.5198 -3.01592e-08 17.2653 -4.37357e-08 16.9999C-5.73122e-08 16.7346 0.105415 16.4801 0.293056 16.2924L14.5868 1.99993L4.00056 1.99993C3.73534 1.99993 3.48099 1.89457 3.29345 1.70704C3.10591 1.5195 3.00056 1.26515 3.00056 0.999931C3.00056 0.734714 3.10591 0.48036 3.29345 0.292824C3.48099 0.105287 3.73534 -6.88278e-05 4.00056 -6.88394e-05Z" fill="white"/>
</svg>
