<svg width="16" height="14" viewBox="0 0 16 14" fill="none" xmlns="http://www.w3.org/2000/svg">
<path d="M9.55329 13.1428L15.96 6.70277L9.55329 0.262773C9.49543 0.18679 9.42192 0.124127 9.33774 0.0790242C9.25356 0.0339219 9.16066 0.00743366 9.06535 0.00135255C8.97004 -0.00472855 8.87454 0.00973981 8.7853 0.0437777C8.69607 0.0778156 8.61519 0.130628 8.54814 0.198641C8.4811 0.266654 8.42944 0.348278 8.39668 0.437989C8.36392 0.527699 8.35082 0.623401 8.35826 0.718615C8.36571 0.813829 8.39352 0.906333 8.43982 0.989864C8.48612 1.07339 8.54983 1.146 8.62663 1.20277L13.42 6.03611L0.666627 6.03611C0.489816 6.03611 0.320248 6.10634 0.195223 6.23137C0.070199 6.35639 -4.00543e-05 6.52596 -4.00543e-05 6.70277C-4.00543e-05 6.87958 0.070199 7.04915 0.195223 7.17418C0.320248 7.2992 0.489816 7.36944 0.666627 7.36944L13.42 7.36944L8.62663 12.2028C8.50198 12.3283 8.4323 12.4982 8.43292 12.6751C8.43355 12.852 8.50442 13.0215 8.62996 13.1461C8.7555 13.2708 8.92541 13.3404 9.10232 13.3398C9.27923 13.3392 9.44864 13.2683 9.57329 13.1428L9.55329 13.1428Z" fill="#464C53"/>
</svg>
