<svg width="36" height="25" viewBox="0 0 36 25" fill="none" xmlns="http://www.w3.org/2000/svg">
<path d="M2.00001 24.5605C1.43334 24.5605 0.958674 24.3685 0.576007 23.9845C0.19334 23.6005 0.00134023 23.1259 6.89654e-06 22.5605C-0.00132644 21.9952 0.190674 21.5205 0.576007 21.1365C0.96134 20.7525 1.43601 20.5605 2.00001 20.5605H34C34.5667 20.5605 35.042 20.7525 35.426 21.1365C35.81 21.5205 36.0013 21.9952 36 22.5605C35.9987 23.1259 35.8067 23.6012 35.424 23.9865C35.0413 24.3719 34.5667 24.5632 34 24.5605H2.00001ZM2.00001 14.5605C1.43334 14.5605 0.958674 14.3685 0.576007 13.9845C0.19334 13.6005 0.00134023 13.1259 6.89654e-06 12.5605C-0.00132644 11.9952 0.190674 11.5205 0.576007 11.1365C0.96134 10.7525 1.43601 10.5605 2.00001 10.5605H34C34.5667 10.5605 35.042 10.7525 35.426 11.1365C35.81 11.5205 36.0013 11.9952 36 12.5605C35.9987 13.1259 35.8067 13.6012 35.424 13.9865C35.0413 14.3719 34.5667 14.5632 34 14.5605H2.00001ZM2.00001 4.56055C1.43334 4.56055 0.958674 4.36855 0.576007 3.98455C0.19334 3.60055 0.00134023 3.12588 6.89654e-06 2.56055C-0.00132644 1.99521 0.190674 1.52055 0.576007 1.13655C0.96134 0.752547 1.43601 0.560547 2.00001 0.560547H34C34.5667 0.560547 35.042 0.752547 35.426 1.13655C35.81 1.52055 36.0013 1.99521 36 2.56055C35.9987 3.12588 35.8067 3.60121 35.424 3.98655C35.0413 4.37188 34.5667 4.56321 34 4.56055H2.00001Z" fill="#121212"/>
</svg>
